<svg preserveAspectRatio="xMinYMin meet" width="100%" height="100%" viewBox="0 0 700.000 525.000"  version="1.1" xmlns="http://www.w3.org/2000/svg" xmlns:xlink="http://www.w3.org/1999/xlink">
  <desc>Matlab Figure Converted by PLOT2SVG written by Juerg Schwizer</desc>
  <g id="topgroup">
  <rect x="0" y="0" width="700.000" height="525.000" fill="#ffffff" stroke="none" />
  <g id ="ID000000">
  <clipPath id="ID000001">
    <rect x="91.000" y="39.375" width="542.500" height="427.875"/>
  </clipPath>
      <polygon fill="#ffffff" fill-opacity="1.00" stroke="none" stroke-width="0.5pt" stroke-opacity="1.00" stroke-dasharray="none" points="326.539,467.250 633.500,384.142 397.961,275.834 91.000,358.942 "/>
      <polygon fill="#ffffff" fill-opacity="1.00" stroke="none" stroke-width="0.5pt" stroke-opacity="1.00" stroke-dasharray="none" points="633.500,384.142 397.961,275.834 397.961,39.375 633.500,147.683 "/>
      <polygon fill="#ffffff" fill-opacity="1.00" stroke="none" stroke-width="0.5pt" stroke-opacity="1.00" stroke-dasharray="none" points="91.000,358.942 397.961,275.834 397.961,39.375 91.000,122.483 "/>
      <polyline fill="none" stroke="#262626" stroke-width="0.5pt" stroke-dasharray="none" stroke-opacity="0.15" points="326.53926,467.25000 91.00000,358.94173 "/>
      <polyline fill="none" stroke="#262626" stroke-width="0.5pt" stroke-dasharray="none" stroke-opacity="0.15" points="403.27945,446.47303 167.74018,338.16476 "/>
      <polyline fill="none" stroke="#262626" stroke-width="0.5pt" stroke-dasharray="none" stroke-opacity="0.15" points="480.01963,425.69607 244.48037,317.38780 "/>
      <polyline fill="none" stroke="#262626" stroke-width="0.5pt" stroke-dasharray="none" stroke-opacity="0.15" points="556.75982,404.91910 321.22055,296.61083 "/>
      <polyline fill="none" stroke="#262626" stroke-width="0.5pt" stroke-dasharray="none" stroke-opacity="0.15" points="633.50000,384.14214 397.96074,275.83387 "/>
      <polyline fill="none" stroke="#262626" stroke-width="0.5pt" stroke-dasharray="none" stroke-opacity="1.00" points="326.53926,467.25000 633.50000,384.14214 "/>
      <polyline fill="none" stroke="#262626" stroke-width="0.5pt" stroke-dasharray="none" stroke-opacity="1.00" points="91.00000,358.94173 397.96074,275.83387 "/>
      <polyline fill="none" stroke="#262626" stroke-width="0.5pt" stroke-dasharray="none" stroke-opacity="0.15" points="326.53926,467.25000 633.50000,384.14214 "/>
      <polyline fill="none" stroke="#262626" stroke-width="0.5pt" stroke-dasharray="none" stroke-opacity="0.15" points="267.65445,440.17293 574.61518,357.06507 "/>
      <polyline fill="none" stroke="#262626" stroke-width="0.5pt" stroke-dasharray="none" stroke-opacity="0.15" points="208.76963,413.09586 515.73037,329.98800 "/>
      <polyline fill="none" stroke="#262626" stroke-width="0.5pt" stroke-dasharray="none" stroke-opacity="0.15" points="149.88482,386.01880 456.84555,302.91093 "/>
      <polyline fill="none" stroke="#262626" stroke-width="0.5pt" stroke-dasharray="none" stroke-opacity="0.15" points="91.00000,358.94173 397.96074,275.83387 "/>
      <polyline fill="none" stroke="#262626" stroke-width="0.5pt" stroke-dasharray="none" stroke-opacity="1.00" points="326.53926,467.25000 91.00000,358.94173 "/>
      <polyline fill="none" stroke="#262626" stroke-width="0.5pt" stroke-dasharray="none" stroke-opacity="1.00" points="633.50000,384.14214 397.96074,275.83387 "/>
      <polyline fill="none" stroke="#262626" stroke-width="0.5pt" stroke-dasharray="none" stroke-opacity="0.15" points="633.50000,384.14214 633.50000,147.68327 "/>
      <polyline fill="none" stroke="#262626" stroke-width="0.5pt" stroke-dasharray="none" stroke-opacity="0.15" points="574.61518,357.06507 574.61518,120.60620 "/>
      <polyline fill="none" stroke="#262626" stroke-width="0.5pt" stroke-dasharray="none" stroke-opacity="0.15" points="515.73037,329.98800 515.73037,93.52914 "/>
      <polyline fill="none" stroke="#262626" stroke-width="0.5pt" stroke-dasharray="none" stroke-opacity="0.15" points="456.84555,302.91093 456.84555,66.45207 "/>
      <polyline fill="none" stroke="#262626" stroke-width="0.5pt" stroke-dasharray="none" stroke-opacity="0.15" points="397.96074,275.83387 397.96074,39.37500 "/>
      <polyline fill="none" stroke="#262626" stroke-width="0.5pt" stroke-dasharray="none" stroke-opacity="1.00" points="633.50000,384.14214 397.96074,275.83387 "/>
      <polyline fill="none" stroke="#262626" stroke-width="0.5pt" stroke-dasharray="none" stroke-opacity="1.00" points="633.50000,147.68327 397.96074,39.37500 "/>
      <polyline fill="none" stroke="#262626" stroke-width="0.5pt" stroke-dasharray="none" stroke-opacity="0.15" points="633.50000,384.14214 397.96074,275.83387 "/>
      <polyline fill="none" stroke="#262626" stroke-width="0.5pt" stroke-dasharray="none" stroke-opacity="0.15" points="633.50000,354.58478 397.96074,246.27651 "/>
      <polyline fill="none" stroke="#262626" stroke-width="0.5pt" stroke-dasharray="none" stroke-opacity="0.15" points="633.50000,325.02742 397.96074,216.71915 "/>
      <polyline fill="none" stroke="#262626" stroke-width="0.5pt" stroke-dasharray="none" stroke-opacity="0.15" points="633.50000,295.47006 397.96074,187.16179 "/>
      <polyline fill="none" stroke="#262626" stroke-width="0.5pt" stroke-dasharray="none" stroke-opacity="0.15" points="633.50000,265.91271 397.96074,157.60443 "/>
      <polyline fill="none" stroke="#262626" stroke-width="0.5pt" stroke-dasharray="none" stroke-opacity="0.15" points="633.50000,236.35535 397.96074,128.04707 "/>
      <polyline fill="none" stroke="#262626" stroke-width="0.5pt" stroke-dasharray="none" stroke-opacity="0.15" points="633.50000,206.79799 397.96074,98.48972 "/>
      <polyline fill="none" stroke="#262626" stroke-width="0.5pt" stroke-dasharray="none" stroke-opacity="0.15" points="633.50000,177.24063 397.96074,68.93236 "/>
      <polyline fill="none" stroke="#262626" stroke-width="0.5pt" stroke-dasharray="none" stroke-opacity="0.15" points="633.50000,147.68327 397.96074,39.37500 "/>
      <polyline fill="none" stroke="#262626" stroke-width="0.5pt" stroke-dasharray="none" stroke-opacity="1.00" points="633.50000,384.14214 633.50000,147.68327 "/>
      <polyline fill="none" stroke="#262626" stroke-width="0.5pt" stroke-dasharray="none" stroke-opacity="1.00" points="397.96074,275.83387 397.96074,39.37500 "/>
      <polyline fill="none" stroke="#262626" stroke-width="0.5pt" stroke-dasharray="none" stroke-opacity="0.15" points="91.00000,358.94173 91.00000,122.48286 "/>
      <polyline fill="none" stroke="#262626" stroke-width="0.5pt" stroke-dasharray="none" stroke-opacity="0.15" points="167.74018,338.16476 167.74018,101.70590 "/>
      <polyline fill="none" stroke="#262626" stroke-width="0.5pt" stroke-dasharray="none" stroke-opacity="0.15" points="244.48037,317.38780 244.48037,80.92893 "/>
      <polyline fill="none" stroke="#262626" stroke-width="0.5pt" stroke-dasharray="none" stroke-opacity="0.15" points="321.22055,296.61083 321.22055,60.15197 "/>
      <polyline fill="none" stroke="#262626" stroke-width="0.5pt" stroke-dasharray="none" stroke-opacity="0.15" points="397.96074,275.83387 397.96074,39.37500 "/>
      <polyline fill="none" stroke="#262626" stroke-width="0.5pt" stroke-dasharray="none" stroke-opacity="1.00" points="91.00000,358.94173 397.96074,275.83387 "/>
      <polyline fill="none" stroke="#262626" stroke-width="0.5pt" stroke-dasharray="none" stroke-opacity="1.00" points="91.00000,122.48286 397.96074,39.37500 "/>
      <polyline fill="none" stroke="#262626" stroke-width="0.5pt" stroke-dasharray="none" stroke-opacity="0.15" points="91.00000,358.94173 397.96074,275.83387 "/>
      <polyline fill="none" stroke="#262626" stroke-width="0.5pt" stroke-dasharray="none" stroke-opacity="0.15" points="91.00000,329.38437 397.96074,246.27651 "/>
      <polyline fill="none" stroke="#262626" stroke-width="0.5pt" stroke-dasharray="none" stroke-opacity="0.15" points="91.00000,299.82701 397.96074,216.71915 "/>
      <polyline fill="none" stroke="#262626" stroke-width="0.5pt" stroke-dasharray="none" stroke-opacity="0.15" points="91.00000,270.26965 397.96074,187.16179 "/>
      <polyline fill="none" stroke="#262626" stroke-width="0.5pt" stroke-dasharray="none" stroke-opacity="0.15" points="91.00000,240.71229 397.96074,157.60443 "/>
      <polyline fill="none" stroke="#262626" stroke-width="0.5pt" stroke-dasharray="none" stroke-opacity="0.15" points="91.00000,211.15494 397.96074,128.04707 "/>
      <polyline fill="none" stroke="#262626" stroke-width="0.5pt" stroke-dasharray="none" stroke-opacity="0.15" points="91.00000,181.59758 397.96074,98.48972 "/>
      <polyline fill="none" stroke="#262626" stroke-width="0.5pt" stroke-dasharray="none" stroke-opacity="0.15" points="91.00000,152.04022 397.96074,68.93236 "/>
      <polyline fill="none" stroke="#262626" stroke-width="0.5pt" stroke-dasharray="none" stroke-opacity="0.15" points="91.00000,122.48286 397.96074,39.37500 "/>
      <polyline fill="none" stroke="#262626" stroke-width="0.5pt" stroke-dasharray="none" stroke-opacity="1.00" points="91.00000,358.94173 91.00000,122.48286 "/>
      <polyline fill="none" stroke="#262626" stroke-width="0.5pt" stroke-dasharray="none" stroke-opacity="1.00" points="397.96074,275.83387 397.96074,39.37500 "/>
    <g>
<g id="ID000002" >
</g>
<g id="ID000003" >
</g>
<g id="ID000004" >
</g>
<g id="ID000005" >
</g>
<g id="ID000006" clip-path="url(#ID000001)" >
      <polygon fill="#37b89d" fill-opacity="1.00" stroke="#000000" stroke-width="0.5pt" stroke-opacity="1.00" stroke-dasharray="none" points="321.221,178.381 450.894,279.452 315.269,273.152 "/>
      <polygon fill="#37b89d" fill-opacity="1.00" stroke="#000000" stroke-width="0.5pt" stroke-opacity="1.00" stroke-dasharray="none" points="321.221,178.381 456.846,184.682 450.894,279.452 "/>
      <polygon fill="#0870de" fill-opacity="1.00" stroke="#000000" stroke-width="0.5pt" stroke-opacity="1.00" stroke-dasharray="none" points="315.269,273.152 450.894,279.452 232.577,329.586 "/>
      <polygon fill="#0870de" fill-opacity="1.00" stroke="#000000" stroke-width="0.5pt" stroke-opacity="1.00" stroke-dasharray="none" points="450.894,279.452 503.827,342.186 232.577,329.586 "/>
      <polygon fill="#37b89d" fill-opacity="1.00" stroke="#000000" stroke-width="0.5pt" stroke-opacity="1.00" stroke-dasharray="none" points="321.221,178.381 515.730,152.644 456.846,184.682 "/>
      <polygon fill="#37b89d" fill-opacity="1.00" stroke="#000000" stroke-width="0.5pt" stroke-opacity="1.00" stroke-dasharray="none" points="321.221,178.381 315.269,273.152 161.788,196.477 "/>
      <polygon fill="#a5be6a" fill-opacity="1.00" stroke="#000000" stroke-width="0.5pt" stroke-opacity="1.00" stroke-dasharray="none" points="161.788,196.477 315.269,273.152 232.577,329.586 "/>
      <polygon fill="#37b89d" fill-opacity="1.00" stroke="#000000" stroke-width="0.5pt" stroke-opacity="1.00" stroke-dasharray="none" points="456.846,184.682 568.663,215.377 450.894,279.452 "/>
      <polygon fill="#d8ba55" fill-opacity="1.00" stroke="#000000" stroke-width="0.5pt" stroke-opacity="1.00" stroke-dasharray="none" points="244.480,140.044 321.221,178.381 161.788,196.477 "/>
      <polygon fill="#1f52d3" fill-opacity="1.00" stroke="#000000" stroke-width="0.5pt" stroke-opacity="1.00" stroke-dasharray="none" points="232.577,329.586 503.827,342.186 421.135,398.619 "/>
      <polygon fill="#aebd67" fill-opacity="1.00" stroke="#000000" stroke-width="0.5pt" stroke-opacity="1.00" stroke-dasharray="none" points="568.663,215.377 503.827,342.186 450.894,279.452 "/>
      <polygon fill="#f8fa0d" fill-opacity="1.00" stroke="#000000" stroke-width="0.5pt" stroke-opacity="1.00" stroke-dasharray="none" points="303.365,108.006 321.221,178.381 244.480,140.044 "/>
      <polygon fill="#069ccf" fill-opacity="1.00" stroke="#000000" stroke-width="0.5pt" stroke-opacity="1.00" stroke-dasharray="none" points="155.837,291.248 232.577,329.586 285.510,392.319 "/>
      <polygon fill="#1f52d3" fill-opacity="1.00" stroke="#000000" stroke-width="0.5pt" stroke-opacity="1.00" stroke-dasharray="none" points="232.577,329.586 421.135,398.619 285.510,392.319 "/>
      <polygon fill="#f8fa0d" fill-opacity="1.00" stroke="#000000" stroke-width="0.5pt" stroke-opacity="1.00" stroke-dasharray="none" points="303.365,108.006 515.730,152.644 321.221,178.381 "/>
      <polygon fill="#d8ba55" fill-opacity="1.00" stroke="#000000" stroke-width="0.5pt" stroke-opacity="1.00" stroke-dasharray="none" points="515.730,152.644 568.663,215.377 456.846,184.682 "/>
      <polygon fill="#a5be6a" fill-opacity="1.00" stroke="#000000" stroke-width="0.5pt" stroke-opacity="1.00" stroke-dasharray="none" points="161.788,196.477 232.577,329.586 155.837,291.248 "/>
      <polygon fill="#f8fa0d" fill-opacity="1.00" stroke="#000000" stroke-width="0.5pt" stroke-opacity="1.00" stroke-dasharray="none" points="303.365,108.006 244.480,140.044 161.788,196.477 "/>
      <polygon fill="#aebd67" fill-opacity="1.00" stroke="#000000" stroke-width="0.5pt" stroke-opacity="1.00" stroke-dasharray="none" points="568.663,215.377 562.712,310.148 503.827,342.186 "/>
      <polygon fill="#1f52d3" fill-opacity="1.00" stroke="#000000" stroke-width="0.5pt" stroke-opacity="1.00" stroke-dasharray="none" points="503.827,342.186 480.020,366.581 421.135,398.619 "/>
      <polygon fill="#069ccf" fill-opacity="1.00" stroke="#000000" stroke-width="0.5pt" stroke-opacity="1.00" stroke-dasharray="none" points="155.837,291.248 285.510,392.319 208.770,353.981 "/>
      <polygon fill="#06a0cc" fill-opacity="1.00" stroke="#000000" stroke-width="0.5pt" stroke-opacity="1.00" stroke-dasharray="none" points="562.712,310.148 480.020,366.581 503.827,342.186 "/>
      <polygon fill="#a5be6a" fill-opacity="1.00" stroke="#000000" stroke-width="0.5pt" stroke-opacity="1.00" stroke-dasharray="none" points="161.788,196.477 155.837,291.248 208.770,353.981 "/>
      <polygon fill="#f8fa0d" fill-opacity="1.00" stroke="#000000" stroke-width="0.5pt" stroke-opacity="1.00" stroke-dasharray="none" points="303.365,108.006 438.990,114.306 515.730,152.644 "/>
      <polygon fill="#f8fa0d" fill-opacity="1.00" stroke="#000000" stroke-width="0.5pt" stroke-opacity="1.00" stroke-dasharray="none" points="438.990,114.306 568.663,215.377 515.730,152.644 "/>
      <polygon fill="#37b89d" fill-opacity="1.00" stroke="#000000" stroke-width="0.5pt" stroke-opacity="1.00" stroke-dasharray="none" points="403.279,328.244 285.510,392.319 421.135,398.619 "/>
      <polygon fill="#f8fa0d" fill-opacity="1.00" stroke="#000000" stroke-width="0.5pt" stroke-opacity="1.00" stroke-dasharray="none" points="303.365,108.006 161.788,196.477 220.673,164.439 "/>
      <polygon fill="#37b89d" fill-opacity="1.00" stroke="#000000" stroke-width="0.5pt" stroke-opacity="1.00" stroke-dasharray="none" points="267.654,321.943 208.770,353.981 285.510,392.319 "/>
      <polygon fill="#f8fa0d" fill-opacity="1.00" stroke="#000000" stroke-width="0.5pt" stroke-opacity="1.00" stroke-dasharray="none" points="303.365,108.006 491.923,177.039 438.990,114.306 "/>
      <polygon fill="#f8fa0d" fill-opacity="1.00" stroke="#000000" stroke-width="0.5pt" stroke-opacity="1.00" stroke-dasharray="none" points="438.990,114.306 491.923,177.039 568.663,215.377 "/>
      <polygon fill="#aebd67" fill-opacity="1.00" stroke="#000000" stroke-width="0.5pt" stroke-opacity="1.00" stroke-dasharray="none" points="568.663,215.377 403.279,328.244 562.712,310.148 "/>
      <polygon fill="#a5be6a" fill-opacity="1.00" stroke="#000000" stroke-width="0.5pt" stroke-opacity="1.00" stroke-dasharray="none" points="161.788,196.477 208.770,353.981 273.606,227.173 "/>
      <polygon fill="#37b89d" fill-opacity="1.00" stroke="#000000" stroke-width="0.5pt" stroke-opacity="1.00" stroke-dasharray="none" points="403.279,328.244 421.135,398.619 480.020,366.581 "/>
      <polygon fill="#f8fa0d" fill-opacity="1.00" stroke="#000000" stroke-width="0.5pt" stroke-opacity="1.00" stroke-dasharray="none" points="303.365,108.006 220.673,164.439 491.923,177.039 "/>
      <polygon fill="#06a0cc" fill-opacity="1.00" stroke="#000000" stroke-width="0.5pt" stroke-opacity="1.00" stroke-dasharray="none" points="562.712,310.148 403.279,328.244 480.020,366.581 "/>
      <polygon fill="#f7d825" fill-opacity="1.00" stroke="#000000" stroke-width="0.5pt" stroke-opacity="1.00" stroke-dasharray="none" points="220.673,164.439 161.788,196.477 273.606,227.173 "/>
      <polygon fill="#37b89d" fill-opacity="1.00" stroke="#000000" stroke-width="0.5pt" stroke-opacity="1.00" stroke-dasharray="none" points="267.654,321.943 285.510,392.319 403.279,328.244 "/>
      <polygon fill="#f7d825" fill-opacity="1.00" stroke="#000000" stroke-width="0.5pt" stroke-opacity="1.00" stroke-dasharray="none" points="491.923,177.039 403.279,328.244 568.663,215.377 "/>
      <polygon fill="#fdbe3d" fill-opacity="1.00" stroke="#000000" stroke-width="0.5pt" stroke-opacity="1.00" stroke-dasharray="none" points="273.606,227.173 208.770,353.981 267.654,321.943 "/>
      <polygon fill="#f7d825" fill-opacity="1.00" stroke="#000000" stroke-width="0.5pt" stroke-opacity="1.00" stroke-dasharray="none" points="220.673,164.439 273.606,227.173 491.923,177.039 "/>
      <polygon fill="#f7d825" fill-opacity="1.00" stroke="#000000" stroke-width="0.5pt" stroke-opacity="1.00" stroke-dasharray="none" points="491.923,177.039 409.231,233.473 403.279,328.244 "/>
      <polygon fill="#f7d825" fill-opacity="1.00" stroke="#000000" stroke-width="0.5pt" stroke-opacity="1.00" stroke-dasharray="none" points="491.923,177.039 273.606,227.173 409.231,233.473 "/>
      <polygon fill="#fdbe3d" fill-opacity="1.00" stroke="#000000" stroke-width="0.5pt" stroke-opacity="1.00" stroke-dasharray="none" points="273.606,227.173 267.654,321.943 403.279,328.244 "/>
      <polygon fill="#fdbe3d" fill-opacity="1.00" stroke="#000000" stroke-width="0.5pt" stroke-opacity="1.00" stroke-dasharray="none" points="273.606,227.173 403.279,328.244 409.231,233.473 "/>
</g>
    </g>
    <g>
      <polyline fill="none" stroke="#262626" stroke-width="0.5pt" stroke-dasharray="none" stroke-opacity="1.00" points="326.53926,467.25000 332.42774,469.95771 "/>
      <polyline fill="none" stroke="#262626" stroke-width="0.5pt" stroke-dasharray="none" stroke-opacity="1.00" points="403.27945,446.47303 409.16793,449.18074 "/>
      <polyline fill="none" stroke="#262626" stroke-width="0.5pt" stroke-dasharray="none" stroke-opacity="1.00" points="480.01963,425.69607 485.90811,428.40378 "/>
      <polyline fill="none" stroke="#262626" stroke-width="0.5pt" stroke-dasharray="none" stroke-opacity="1.00" points="556.75982,404.91910 562.64830,407.62681 "/>
      <polyline fill="none" stroke="#262626" stroke-width="0.5pt" stroke-dasharray="none" stroke-opacity="1.00" points="633.50000,384.14214 639.38848,386.84985 "/>
      <polyline fill="none" stroke="#262626" stroke-width="0.5pt" stroke-dasharray="none" stroke-opacity="1.00" points="326.53926,467.25000 633.50000,384.14214 "/>
  <g transform="translate(338.316,484.465)">
    <g transform="rotate(-0.0)">
      <text x="0.000" y="0.000" font-family="Helvetica" text-anchor="middle" font-size="10pt" fill="#262626" ><tspan>-2</tspan></text>
    </g>
  </g>
  <g transform="translate(415.056,463.688)">
    <g transform="rotate(-0.0)">
      <text x="0.000" y="0.000" font-family="Helvetica" text-anchor="middle" font-size="10pt" fill="#262626" ><tspan>-1</tspan></text>
    </g>
  </g>
  <g transform="translate(491.797,442.911)">
    <g transform="rotate(-0.0)">
      <text x="0.000" y="0.000" font-family="Helvetica" text-anchor="middle" font-size="10pt" fill="#262626" ><tspan>0</tspan></text>
    </g>
  </g>
  <g transform="translate(568.537,422.135)">
    <g transform="rotate(-0.0)">
      <text x="0.000" y="0.000" font-family="Helvetica" text-anchor="middle" font-size="10pt" fill="#262626" ><tspan>1</tspan></text>
    </g>
  </g>
  <g transform="translate(645.277,401.358)">
    <g transform="rotate(-0.0)">
      <text x="0.000" y="0.000" font-family="Helvetica" text-anchor="middle" font-size="10pt" fill="#262626" ><tspan>2</tspan></text>
    </g>
  </g>
      <polyline fill="none" stroke="#262626" stroke-width="0.5pt" stroke-dasharray="none" stroke-opacity="1.00" points="326.53926,467.25000 318.86524,469.32770 "/>
      <polyline fill="none" stroke="#262626" stroke-width="0.5pt" stroke-dasharray="none" stroke-opacity="1.00" points="267.65445,440.17293 259.98043,442.25063 "/>
      <polyline fill="none" stroke="#262626" stroke-width="0.5pt" stroke-dasharray="none" stroke-opacity="1.00" points="208.76963,413.09586 201.09561,415.17356 "/>
      <polyline fill="none" stroke="#262626" stroke-width="0.5pt" stroke-dasharray="none" stroke-opacity="1.00" points="149.88482,386.01880 142.21080,388.09649 "/>
      <polyline fill="none" stroke="#262626" stroke-width="0.5pt" stroke-dasharray="none" stroke-opacity="1.00" points="91.00000,358.94173 83.32598,361.01942 "/>
      <polyline fill="none" stroke="#262626" stroke-width="0.5pt" stroke-dasharray="none" stroke-opacity="1.00" points="326.53926,467.25000 91.00000,358.94173 "/>
  <g transform="translate(311.191,483.205)">
    <g transform="rotate(-0.0)">
      <text x="0.000" y="0.000" font-family="Helvetica" text-anchor="middle" font-size="10pt" fill="#262626" ><tspan>-2</tspan></text>
    </g>
  </g>
  <g transform="translate(252.306,456.128)">
    <g transform="rotate(-0.0)">
      <text x="0.000" y="0.000" font-family="Helvetica" text-anchor="middle" font-size="10pt" fill="#262626" ><tspan>-1</tspan></text>
    </g>
  </g>
  <g transform="translate(193.422,429.051)">
    <g transform="rotate(-0.0)">
      <text x="0.000" y="0.000" font-family="Helvetica" text-anchor="middle" font-size="10pt" fill="#262626" ><tspan>0</tspan></text>
    </g>
  </g>
  <g transform="translate(134.537,401.974)">
    <g transform="rotate(-0.0)">
      <text x="0.000" y="0.000" font-family="Helvetica" text-anchor="middle" font-size="10pt" fill="#262626" ><tspan>1</tspan></text>
    </g>
  </g>
  <g transform="translate(75.652,374.897)">
    <g transform="rotate(-0.0)">
      <text x="0.000" y="0.000" font-family="Helvetica" text-anchor="middle" font-size="10pt" fill="#262626" ><tspan>2</tspan></text>
    </g>
  </g>
      <polyline fill="none" stroke="#262626" stroke-width="0.5pt" stroke-dasharray="none" stroke-opacity="1.00" points="91.00000,358.94173 85.11152,356.23402 "/>
      <polyline fill="none" stroke="#262626" stroke-width="0.5pt" stroke-dasharray="none" stroke-opacity="1.00" points="91.00000,329.38437 85.11152,326.67666 "/>
      <polyline fill="none" stroke="#262626" stroke-width="0.5pt" stroke-dasharray="none" stroke-opacity="1.00" points="91.00000,299.82701 85.11152,297.11930 "/>
      <polyline fill="none" stroke="#262626" stroke-width="0.5pt" stroke-dasharray="none" stroke-opacity="1.00" points="91.00000,270.26965 85.11152,267.56195 "/>
      <polyline fill="none" stroke="#262626" stroke-width="0.5pt" stroke-dasharray="none" stroke-opacity="1.00" points="91.00000,240.71229 85.11152,238.00459 "/>
      <polyline fill="none" stroke="#262626" stroke-width="0.5pt" stroke-dasharray="none" stroke-opacity="1.00" points="91.00000,211.15494 85.11152,208.44723 "/>
      <polyline fill="none" stroke="#262626" stroke-width="0.5pt" stroke-dasharray="none" stroke-opacity="1.00" points="91.00000,181.59758 85.11152,178.88987 "/>
      <polyline fill="none" stroke="#262626" stroke-width="0.5pt" stroke-dasharray="none" stroke-opacity="1.00" points="91.00000,152.04022 85.11152,149.33251 "/>
      <polyline fill="none" stroke="#262626" stroke-width="0.5pt" stroke-dasharray="none" stroke-opacity="1.00" points="91.00000,122.48286 85.11152,119.77515 "/>
      <polyline fill="none" stroke="#262626" stroke-width="0.5pt" stroke-dasharray="none" stroke-opacity="1.00" points="91.00000,358.94173 91.00000,122.48286 "/>
  <g transform="translate(79.223,358.026)">
    <g transform="rotate(-0.0)">
      <text x="0.000" y="0.000" font-family="Helvetica" text-anchor="end" font-size="10pt" fill="#262626" ><tspan>-2</tspan></text>
    </g>
  </g>
  <g transform="translate(79.223,328.469)">
    <g transform="rotate(-0.0)">
      <text x="0.000" y="0.000" font-family="Helvetica" text-anchor="end" font-size="10pt" fill="#262626" ><tspan>-1.5</tspan></text>
    </g>
  </g>
  <g transform="translate(79.223,298.912)">
    <g transform="rotate(-0.0)">
      <text x="0.000" y="0.000" font-family="Helvetica" text-anchor="end" font-size="10pt" fill="#262626" ><tspan>-1</tspan></text>
    </g>
  </g>
  <g transform="translate(79.223,269.354)">
    <g transform="rotate(-0.0)">
      <text x="0.000" y="0.000" font-family="Helvetica" text-anchor="end" font-size="10pt" fill="#262626" ><tspan>-0.5</tspan></text>
    </g>
  </g>
  <g transform="translate(79.223,239.797)">
    <g transform="rotate(-0.0)">
      <text x="0.000" y="0.000" font-family="Helvetica" text-anchor="end" font-size="10pt" fill="#262626" ><tspan>0</tspan></text>
    </g>
  </g>
  <g transform="translate(79.223,210.240)">
    <g transform="rotate(-0.0)">
      <text x="0.000" y="0.000" font-family="Helvetica" text-anchor="end" font-size="10pt" fill="#262626" ><tspan>0.5</tspan></text>
    </g>
  </g>
  <g transform="translate(79.223,180.682)">
    <g transform="rotate(-0.0)">
      <text x="0.000" y="0.000" font-family="Helvetica" text-anchor="end" font-size="10pt" fill="#262626" ><tspan>1</tspan></text>
    </g>
  </g>
  <g transform="translate(79.223,151.125)">
    <g transform="rotate(-0.0)">
      <text x="0.000" y="0.000" font-family="Helvetica" text-anchor="end" font-size="10pt" fill="#262626" ><tspan>1.5</tspan></text>
    </g>
  </g>
  <g transform="translate(79.223,121.567)">
    <g transform="rotate(-0.0)">
      <text x="0.000" y="0.000" font-family="Helvetica" text-anchor="end" font-size="10pt" fill="#262626" ><tspan>2</tspan></text>
    </g>
  </g>
    </g>
  </g>
  </g>
</svg>
